<svg width="11" height="12" viewBox="0 0 11 12" fill="none" xmlns="http://www.w3.org/2000/svg">
<path d="M5.40833 5.45C4.36792 5.155 4.03333 4.85 4.03333 4.375C4.03333 3.83 4.49625 3.45 5.27083 3.45C6.08667 3.45 6.38917 3.875 6.41667 4.5H7.42958C7.3975 3.64 6.91625 2.85 5.95833 2.595V1.5H4.58333V2.58C3.69417 2.79 2.97917 3.42 2.97917 4.385C2.97917 5.54 3.85458 6.115 5.13333 6.45C6.27917 6.75 6.50833 7.19 6.50833 7.655C6.50833 8 6.28375 8.55 5.27083 8.55C4.32667 8.55 3.95542 8.09 3.905 7.5H2.89667C2.95167 8.595 3.70333 9.21 4.58333 9.415V10.5H5.95833V9.425C6.85208 9.24 7.5625 8.675 7.5625 7.65C7.5625 6.23 6.44875 5.745 5.40833 5.45Z" fill="#FFCA03"/>
</svg>
